<?xml version="1.0" encoding="utf-8"?>
<!-- Generator: Adobe Illustrator 19.2.1, SVG Export Plug-In . SVG Version: 6.00 Build 0)  -->
<svg version="1.1" id="Layer_1" xmlns="http://www.w3.org/2000/svg" xmlns:xlink="http://www.w3.org/1999/xlink" x="0px" y="0px"
	 viewBox="0 0 196 48.7" style="enable-background:new 0 0 196 48.7;" xml:space="preserve">
<style type="text/css">
	.st0{fill:#CA4934;}
	.st1{fill:#EDF1E3;}
</style>
<g>
	<path class="st0" d="M0,6.4c1.8-0.6,3.4-1.1,5-1.6c1.6-0.5,3.2-1,4.9-1.4c1.7-0.4,3.4-0.8,4.9-1.1c1.2-0.2,2.4-0.3,3.7-0.3
		c2.1,0,3.5,0.1,4.2,0.2c1,0.2,1.9,0.5,2.8,0.9s1.7,1,2.4,1.7s1.3,1.5,1.7,2.5c0.2,0.4,0.3,0.8,0.3,1.2c0,1.6-0.9,3.6-2.7,6
		c-1.8,2.4-3.6,4.5-5.4,6.3c-1.8,1.8-3.1,3.1-4,3.8l3.9,13.8l-5.7,4.1L5.9,14c0,0-0.2,0.1-0.4,0.4c-0.2,0.3-0.6,0.6-1,1.1
		c-0.4,0.4-0.7,0.7-0.8,0.8c0,0-0.2-0.3-0.4-0.9c-0.2-0.6-0.6-1.5-1-2.6C2,11.6,1.5,10.4,1,9C0.5,7.7,0.2,6.8,0,6.4z M14.1,12.5
		l1.8,6.4c0.9-0.9,2-2.2,3.4-3.8c1.3-1.6,2-2.7,2-3.5c0-0.3-0.1-0.4-0.3-0.5c-0.7-0.1-1.3-0.2-1.9-0.2
		C17.1,11.1,15.5,11.6,14.1,12.5z"/>
	<path class="st0" d="M46.2,17.5c1,0.6,1.9,1.3,2.5,2.2s1.1,2,1.4,3.2c0.3,1.2,0.4,2.4,0.4,3.7c0,1-0.1,2.1-0.3,3
		c-0.2,1-0.4,1.9-0.7,2.7c-0.3,0.8-0.6,1.5-1,2.1c-0.9,1.4-1.9,2.6-3,3.5s-2.1,1.8-3.2,2.4c-1.1,0.6-2.2,1-3.2,1.3s-2.1,0.4-3.2,0.4
		c-1.2,0-2.4-0.2-3.5-0.6c-1.1-0.4-2.1-0.9-2.9-1.5c-1.3-1.1-2.3-2.5-3-4.4c-0.7-1.8-1.1-3.8-1.1-5.8c0-3.5,1-6.3,3-8.5
		c1.7-1.9,3.5-3.2,5.4-4.2s3.7-1.4,5.7-1.4c1.1,0,2.2,0.1,3.3,0.4S45.1,16.9,46.2,17.5z M45,21.2c-0.2,1.1-0.8,2.1-1.6,2.9
		c-0.8,0.8-1.6,1.3-2.4,1.3c-0.4,0-0.7-0.1-1-0.3c-0.4-0.4-0.7-1-0.7-1.8c0-0.7,0.2-1.3,0.7-2c0.4-0.7,1.1-1.2,2.1-1.6
		c-1,0-1.9,0.2-2.8,0.5s-1.7,0.8-2.3,1.4c-0.6,0.6-1.2,1.2-1.5,1.9c-0.4,0.7-0.6,1.4-0.6,2.2c0,1.4,0.6,2.4,1.9,3.2
		c1.2,0.7,2.3,1.1,3.3,1.1c1,0,2-0.3,2.8-1c0.8-0.7,1.4-1.6,1.8-2.7c0.4-1.1,0.6-2.2,0.6-3.2C45.2,22.5,45.1,21.8,45,21.2z"/>
	<path class="st0" d="M47,4.7L58.1,0l1.6,25.3l9.1-5l9.5,1.4L66,31.2l11.7,8.8l0.5,8.8L61,36.4l0.5,10.7l-10.4,0.2l-2-38L45.9,10
		L47,4.7z"/>
	<path class="st0" d="M93.6,29.1l5.3,6.4c-0.4,1.2-1.4,2.3-3,3.4c-1.6,1-3.5,1.8-5.6,2.4c-2.2,0.6-4.4,0.9-6.5,0.9
		c-1.9,0-3.6-0.3-5.1-0.8C77,40.9,75.8,40.1,75,39c-1.4-1.8-2.1-4.1-2.1-6.8c0-2.2,0.4-4.3,1.2-6.5c0.8-2.1,1.6-3.6,2.5-4.4
		c1.1-1,2.2-1.8,3.5-2.5c1.2-0.7,2.5-1.2,3.9-1.5c1.3-0.3,2.7-0.5,4.1-0.5c1.9,0,3.6,0.3,5.3,0.9c1.7,0.6,3.1,1.4,4.4,2.6l-12,14.3
		c1.1,0,2.1-0.2,3-0.7c1-0.4,1.8-1.1,2.6-1.9C92.2,31.2,92.9,30.2,93.6,29.1z M87.5,24c-0.7-0.4-1.4-0.5-2.2-0.5
		c-0.8,0-1.5,0.2-2.3,0.5c-0.7,0.3-1.3,0.7-1.6,1.1c-0.9,1.2-1.4,2.4-1.4,3.8c0,0.5,0.1,1,0.2,1.5c0.1,0.5,0.3,1.1,0.5,1.9L87.5,24z
		"/>
	<path class="st1" d="M123.6,7.3c0.7,1.4,1.3,2.8,1.7,4.3s0.8,2.9,1,4.4c0.2,1.5,0.3,2.9,0.3,4.3c0,2.5-0.3,5-1,7.3
		s-1.7,4.4-2.9,6.3s-2.8,3.3-4.6,4.5c-1.8,1.2-3.8,1.9-6,2.1l-9.1,1.6L99.9,14c-0.1,0-0.5,0.4-1.1,1.2c-0.6,0.8-1,1.2-1.1,1.2
		c-0.3-0.2-0.6-0.8-0.8-1.9c-0.2-1-0.6-2.6-1-4.8c-0.4-2.2-0.8-3.5-1-3.9c3.4-1.1,6.5-2,9.5-2.7c3-0.7,5.7-1,8.3-1
		C118.2,2.1,121.8,3.8,123.6,7.3z M115,11.3c-1.2-0.4-2.2-0.6-2.9-0.6c-1,0-1.9,0.3-2.9,1l1.1,19.9c2.5-1.1,4.1-2.1,4.9-3.2
		c0.8-1,1.3-1.9,1.5-2.6c0.1-0.3,0.3-1.1,0.4-2.4c0.2-1.3,0.2-2.7,0.2-4.2c0-2-0.2-3.8-0.6-5.2C116.5,12.5,115.9,11.6,115,11.3z"/>
	<path class="st1" d="M145.1,29.1l5.3,6.4c-0.4,1.2-1.4,2.3-3,3.4c-1.6,1-3.5,1.8-5.6,2.4c-2.2,0.6-4.4,0.9-6.5,0.9
		c-1.9,0-3.6-0.3-5.1-0.8c-1.5-0.5-2.7-1.3-3.5-2.3c-1.4-1.8-2.1-4.1-2.1-6.8c0-2.2,0.4-4.3,1.2-6.5c0.8-2.1,1.6-3.6,2.5-4.4
		c1.1-1,2.2-1.8,3.5-2.5c1.2-0.7,2.5-1.2,3.9-1.5c1.3-0.3,2.7-0.5,4.1-0.5c1.9,0,3.6,0.3,5.3,0.9c1.7,0.6,3.1,1.4,4.4,2.6l-12,14.3
		c1.1,0,2.1-0.2,3-0.7c1-0.4,1.8-1.1,2.6-1.9C143.7,31.2,144.4,30.2,145.1,29.1z M139,24c-0.7-0.4-1.4-0.5-2.2-0.5
		c-0.8,0-1.5,0.2-2.3,0.5c-0.7,0.3-1.3,0.7-1.6,1.1c-0.9,1.2-1.4,2.4-1.4,3.8c0,0.5,0.1,1,0.2,1.5c0.1,0.5,0.3,1.1,0.5,1.9L139,24z"
		/>
	<path class="st1" d="M171.8,24.5c-0.4-0.2-1.5-0.5-3.2-1c-1.7-0.5-3.2-1-4.5-1.3c-1.3-0.4-2.8-0.7-4.4-1.1
		c-1.6-0.3-2.8-0.5-3.7-0.5c-0.5,0-0.8,0.1-1.1,0.2c-0.7,0.5-1.1,1-1.1,1.5c0,0.7,0.7,1.3,2.1,1.8c1.4,0.5,3.2,0.9,5.2,1.1
		c2.8,0.3,5.1,1,6.8,2c1.7,1,3,2.2,3.7,3.5c0.8,1.3,1.2,2.7,1.2,4.1c0,1-0.2,1.9-0.6,2.8c-1.7,3.6-4.9,5.4-9.7,5.4
		c-1.3,0-2.8-0.1-4.4-0.4c-1.6-0.3-3.2-0.6-4.7-1c-1.5-0.4-3.1-0.9-4.8-1.5s-3.3-1.1-4.8-1.6c0.4-0.8,0.9-1.7,1.4-2.9
		c0.6-1.1,1.1-2.2,1.7-3.3c0.5-1.1,0.8-1.6,0.8-1.7c0.4,0.4,1,0.7,1.6,1c0.6,0.2,1.6,0.5,2.8,0.9c1.2,0.3,2.1,0.6,2.8,0.9
		c1.4,0.5,2.9,0.8,4.4,0.8c0.9,0,1.8-0.1,2.7-0.3s1.3-0.4,1.4-0.5c0-0.4-0.6-0.8-1.9-1.1c-1.3-0.4-2.7-0.7-4.3-0.9
		c-1.8-0.2-3.6-0.6-5.5-1.3s-3.4-1.7-4.7-3c-1.3-1.3-1.9-2.9-1.9-4.9c0-1.5,0.4-3,1.1-4.6c0.8-1.8,2-3.1,3.7-3.9s3.6-1.2,5.9-1.2
		c2.6,0,5.3,0.4,8.1,1.1c2.8,0.7,6.6,1.9,11.4,3.5c-0.1,0.2-0.5,1.1-1.2,2.8s-1.2,2.8-1.6,3.6C172.1,24.2,171.9,24.5,171.8,24.5z"/>
	<path class="st1" d="M190.8,15.2c0.9,0.6,1.8,1.4,2.5,2.5c0.8,1.1,1.3,2,1.7,2.9s0.7,1.5,0.8,1.9l-8.1,1.8
		c-0.1-0.7-0.5-1.2-1.2-1.4c-0.6-0.2-1.3-0.3-2-0.3c-3.7,0.3-5.6,2.6-5.6,6.6c0.1,3.2,1.1,5,3,5.4c0.9,0,1.7-0.2,2.5-0.7
		c0.7-0.5,1.4-1.1,1.9-1.8c0.5-0.8,1-1.6,1.3-2.5l8.1,1.6c-0.1,0.3-0.3,0.9-0.6,1.7c-0.4,1-1.3,2.3-2.7,3.9
		c-1.4,1.6-2.9,2.8-4.6,3.4c-2.1,0.8-4.1,1.2-6.1,1.2c-3.2,0-6.1-1.1-8.6-3.2c-1.1-1-2-2.1-2.5-3.5c-0.5-1.3-0.8-2.7-0.8-4.2
		c0-1.5,0.2-3,0.6-4.5s0.9-2.8,1.6-4c0.8-1.6,1.7-2.9,2.6-4c1-1.1,2-2,3-2.7c1.1-0.7,2.1-1.2,3.2-1.6c1.1-0.3,2.2-0.5,3.3-0.5
		C186.8,13.4,188.9,14,190.8,15.2z"/>
</g>
</svg>
