<?xml version="1.0" encoding="utf-8"?>
<!-- Generator: Adobe Illustrator 19.2.1, SVG Export Plug-In . SVG Version: 6.00 Build 0)  -->
<svg version="1.1" id="Layer_1" xmlns="http://www.w3.org/2000/svg" xmlns:xlink="http://www.w3.org/1999/xlink" x="0px" y="0px"
	 viewBox="0 0 1210.2 518.7" style="enable-background:new 0 0 1210.2 518.7;" xml:space="preserve">
<style type="text/css">
	.st0{opacity:0.5;}
	.st1{fill:#040404;}
	.st2{fill:#CA4C38;}
	.st3{fill:#FDFDFD;}
</style>
<g class="st0">
	<path class="st1" d="M769.7,176.3c-2-4.4-4.5-8.6-4.3-13.8c0.1-1.9-1.6-3.2-2.8-4.4c-1.3-1.2-1.4-2-0.2-3.5
		c2.1-2.6,4.8-4.2,7.9-5.1c4.1-1.3,8.2-2.6,12.3-3.9c2.4-0.7,4-1.9,3.6-4.7c-0.1-0.6-0.1-1.4,0.2-2c2.5-4.9-0.4-8.3-2.8-12
		c-4.9-7.4-9.5-14.9-14.1-22.5c-3.5-5.9-3.3-11.4-0.3-17.3c5.6-11,12.4-21.2,19.3-31.3c1.8-2.6,2.7-5.4,3-8.6
		c1.1-12.2,2.4-24.5,6.6-36.2c0.3-0.9,0.4-2.1,1.6-2.2c1.3,0,1.5,1.1,1.7,2.1c2.7,12.1,4,24.5,5.6,36.8c1.5,11.7-1.7,22.1-6.1,32.5
		c-1.3,3.2-2.8,6.3-4.1,9.4c-1.1,2.6-1.1,5.1,0.4,7.6c3.1,5.1,6.2,10.2,9.7,15.1c1.5,2.1,2.9,3.1,5.8,2.7c5.5-0.8,11.1-0.8,16.5,0.6
		c1.9,0.5,3.3,0.1,4.5-1.7c4.1-6.3,8.4-12.5,12.7-18.7c2-2.9,1.9-5.7,0-8.6c-6.8-10.1-13.5-20.2-20.4-30.3
		c-2.4-3.5-3.6-7.3-3.8-11.5c-0.7-14-1.4-27.9,0.7-41.8c0.2-1.1-0.3-2.9,1.3-3c1.3-0.1,1.8,1.4,2.3,2.5c5,10.9,8.2,22.4,11.6,33.9
		c1.3,4.4,3.9,7.9,7.3,10.8c8.5,7.5,16.5,15.4,24.1,23.8c6.9,7.6,11.2,16.3,8.9,26.9c-1.4,6.4-4,12.4-6.9,18.3
		c-3.3,6.7-6.9,13.1-11,19.3c-1.1,1.7-1.3,3.2-0.2,4.9c7,12.2,12.8,25,19,37.6c0.8,1.6,1.7,2.7,3.4,3.4c3.2,1.3,6.2,2.9,9,4.9
		c2.4,1.8,4.2,3.9,5.1,6.8c0.3,0.9,0,2.2,1.5,2.2c1.1,0,1.6-1.1,2-2c1.8-4.2,3.5-8.4,5.2-12.6c4.6-11.1,9.6-22.1,13.6-33.5
		c3-8.5,6-17.1,7.7-26.1c0.2-0.9,0-2.3,1.4-2.3c1.2,0,1.5,1.2,1.8,2.1c4.8,15.2,9.3,30.5,12.1,46.2c2.2,12.3,0.3,24.5-2.2,36.6
		c-0.4,2.1-0.4,3.4,1.8,4.2c0.5,0.2,1,0.5,1.5,0.8c4.2,3.1,8.7,3.2,13.8,2.2c13.5-2.6,27-5.3,39.8-10.4c1-0.4,2.4-1.6,3.3-0.4
		c1,1.2-0.6,2.2-1.2,3.1c-4.3,6.3-8.8,12.5-13.9,18.2c-1.4,1.6-2.1,2.7,0.7,3.8c6.7,2.5,11.4,7.5,14.5,13.9c0.8,1.7,1.8,2.3,3.6,1.9
		c10.2-2.1,18.9,4,22.9,13.5c0.9,2.2,1.8,2.8,3.9,2c7.1-3,14.9,0.9,19.2,8.4c0.4,0.7,0.7,1.4,1.1,2c1.8,3,3.2,3,5-0.1
		c2-3.7,3.6-7.6,6-11.1c0.7-1,1.2-2.4,2.6-2.2c1.6,0.2,1.5,1.7,1.8,2.8c1.3,4,1.1,8.1,1.3,12.2c0.1,3,2.3,5.7,5.2,6.3
		c3.2,0.7,4.2-1.4,5.3-3.8c1.4-3.1,3-6.2,5.1-8.9c0.6-0.8,1.3-1.7,2.4-1.3c1,0.3,1,1.4,1.1,2.2c0.4,4.5,0.5,9.1,0.1,13.6
		c-0.2,3,1.4,4.7,3.6,5.8c2.2,1.1,4-0.2,5.5-1.9c1.7-1.9,3.6-3.6,5.4-5.4c0.9-0.9,1.9-2.3,3.4-1.3c1.4,0.9,0.7,2.4,0.5,3.7
		c-0.3,1.6-0.2,3.5-1,4.9c-2.1,3.9,0.1,7,1.7,10.2c0.9,1.7,2.7,2,4.2,2.4c19.5,5.1,37,1.1,51.9-12.4c20.4-18.5,25.7-48.4,13.3-73
		c-0.8-1.6-0.8-4.4-3.1-4.2c-1.9,0.2-1,2.8-1.6,4.3c-1.6,4.3-3,8.6-4.5,12.8c-0.3,0.9-0.3,2.2-1.6,2.1c-1,0-1.5-0.9-2-1.6
		c-8.8-13-16.7-26.6-23.3-40.9c-3.4-7.2-6.8-14.4-10.2-21.6c-0.5-1.1-2-2.5-0.5-3.5c1.4-0.9,2.3,0.9,3.1,1.8
		c9.4,9.9,18.9,19.6,29,28.8c1.4,1.3,3.3,4.4,5.2,2.4c1.6-1.7-1.5-3.5-2.8-4.9c-9.4-9.8-19-19.6-28.5-29.4c-0.8-0.8-2.4-1.6-1.6-2.9
		c1-1.6,2.5-0.3,3.5,0.1c15.2,5.8,29.4,13.3,43.1,21.9c9.9,6.2,19.4,12.9,28.3,20.4c0.9,0.7,2.6,1.3,2.1,2.7
		c-0.6,1.5-2.3,0.7-3.6,0.7c-8.1-0.3-16.2-0.6-24.3-0.2c-0.9,0-1.9-0.2-2.4,0.7c-0.5,0.8,0.1,1.4,0.6,2.1
		c11.2,15.4,14.3,32.8,11.4,51.2c-2.9,18.7-11.8,34.2-27.4,45.5c-14.8,10.7-31.4,13.6-49.3,10.6c-3.2-0.5-6.3-1-9.4-2.2
		c-1.7-0.6-3.1-0.3-4.6,0.7c-6.3,4.3-12.5,3.5-17.6-1.9c-0.9-1-1.8-1.6-3.1-1.5c-3.9,0.1-7.4-1.1-10.6-3.3c-1.1-0.8-2.4-1.5-3.6-0.4
		c-1.1,1-0.6,2.2-0.2,3.4c3.2,9.4,4.9,19.1,6.3,28.8c2.5,17.1,3.8,34.4,4.1,51.7c0.1,3.4,1.6,6.1,3.7,8.7
		c6.5,7.8,13.2,15.5,20.3,22.8c4.5,4.6,7.2,9.9,8.9,16c4,15,8.7,29.8,11.6,45c1.2,6.2,2.3,12.4,2.1,18.8
		c-0.2,6.8-3.4,10.5-10.1,11.3c-5.5,0.7-11.1,0.9-15.1,5.7c-1.2,1.4-2.4,1-2.5-1c0-0.2,0-0.4,0-0.7c0-5.8-0.4-6.1-6.1-4.8
		c-3,0.7-5.8,1.6-8,3.7c-0.7,0.6-1.4,1.3-2.4,0.8c-1.1-0.6-0.7-1.7-0.7-2.7c0-1.2,1.3-2.8-0.2-3.6c-1.4-0.8-2.7,0.6-3.9,1.4
		c-1.3,0.8-2.4,1.9-3.7,2.8c-0.6,0.5-1.3,0.9-2.1,0.5c-0.8-0.4-0.8-1.3-0.6-2.1c1.2-5.4,1.8-11.2,8-13.6c2-0.8,2.6-2.6,3.5-4.2
		c1.4-2.5,3.3-4,6.3-4c3.5,0,6.2-2,8.8-4.2c1.4-1.2,1.3-2.7,1.2-4.3c-0.8-12.6-3.6-24.7-7.4-36.7c-1.2-3.9-4.3-6.4-7.3-8.8
		c-5.6-4.6-11.5-8.7-17.8-12.1c-11.9-6.5-19.8-16.3-25.6-28.2c-6.5-13.1-12.8-26.2-17.8-39.9c-0.3-0.9-0.7-2.1-1.9-2
		c-1.1,0.1-1,1.3-1.2,2.1c-2.6,10.3-5.2,20.6-7.9,30.9c-0.8,3-1.6,6-2.4,9c-1.3,4.6,0.7,8.8,1.9,13c2.3,7.8,4.9,15.4,7.4,23.1
		c0.8,2.4,0.9,4.8,0.3,7.2c-3.5,15.2-5.6,30.7-8.3,46.1c-0.5,2.9-1,5.9-1.6,8.8c-0.8,4-3.7,6.6-7.7,7.2c-4.6,0.7-9.2,1.4-13.8,1.8
		c-2.8,0.2-4,1.4-4.5,4.2c-1.2,6.6-5.2,10.8-11.7,12.6c-1.9,0.5-3.7,0.6-5.6,0c-6.2-1.9-11.6-0.7-15.9,4.4c-0.3-0.4-0.5-0.6-0.6-0.9
		c-1.4-5-1.4-4.9-6.9-4.6c-3.6,0.2-7,1.1-10.1,3c-1.9,1.2-3,1.1-2.7-1.5c0.3-2.9-1.1-2.2-2.8-1.5c-1.2,0.5-2.3,1.9-3.6,0.9
		c-1.3-1.1-0.5-2.7-0.2-4.1c1.2-4.9,2.6-9.7,8.2-11.6c0.7-0.2,1.6-0.8,1.8-1.4c2-5.5,6.6-5.7,11.3-5.5c5.2,0.2,8.7-2,11.3-6.2
		c0.7-1.2,1.7-2.7,0.5-4c-1.3-1.4-2.7-3-5.1-2.5c-6.7,1.2-7.9,0.3-8.4-6.6c-0.2-2.8-0.1-5.6-0.5-8.3c-0.5-3.2,0.8-5.1,3.7-6.1
		c2.6-0.9,5.2-1.8,7.9-2.5c1.9-0.5,2.8-1.6,2.2-3.4c-0.7-1.9,0.3-5.3-3.3-5.2c-2.8,0-5.3,0.1-7.2-2.4c-0.7-0.9-1.8-0.5-2.8-0.3
		c-3.2,0.6-4.9-1.1-5.5-4c-0.9-4.3-1.4-8.7-1.7-13.2c-0.2-2.7,1.6-3.7,3.5-4.6c1.8-0.7,3.7-1.4,5.7-1.8c2.3-0.5,2.7-1.3,1.8-3.7
		c-5.9-15.5-14.8-29.1-24.2-42.6c-3.3-4.7-6.3-9.6-9.3-14.5c-1-1.7-2.2-2.5-4.3-2.4c-8.4,0.3-16.6-0.4-24.5-3.7
		c-1.5-0.6-2.8-0.4-3.4,1.4c-5.9,16.2-14.4,31.1-22.4,46.2c-1.7,3.3-2.6,6.8-3.1,10.4c-0.2,1.5,0.3,2.5,1.6,3.3
		c1.7,1,3.4,2.1,4.9,3.4c2.3,1.9,3.3,4.4,2.5,7.4c-0.9,3.3-1.1,6.7-2.2,10c-1.7,5.1-5,7.7-10.3,7.7c-3,0-4.5,1.2-5,4.1
		c-0.2,1.1,0,2.1,1,2.6c7.2,3.7,5.5,9.6,3.8,15.6c-0.2,0.7-0.5,1.5-0.7,2.2c-1.8,6.4-3.9,8.2-10.6,8.2c-2.2,0-3.5,0.5-4.2,2.8
		c-0.7,2.3-2,4.5-2.5,6.8c-1.7,6.6-6.3,10-12.5,11.5c-4,1-8,1.9-12.1,1.9c-5.3,0-9.9,1.9-14.4,4.5c-1,0.6-2,1.8-3.2,0.9
		c-1.1-0.8-0.3-2-0.1-3.1c0.2-1,1.3-2.1,0.3-3.1c-1-1-2.3-0.3-3.5,0c-2.7,0.8-5.2,1.8-7.5,3.5c-0.7,0.5-1.5,1.1-2.4,0.5
		c-1.1-0.7-0.5-1.8-0.2-2.7c0.1-0.3,0.3-0.6,0.3-0.9c0.1-1.6,1.8-3.3,0.5-4.7c-1.6-1.6-3.6-0.3-5.3,0.2c-1.6,0.5-3,1.4-4.5,2.2
		c-0.7,0.3-1.4,0.8-2.1,0.1c-0.5-0.5-0.5-1.3-0.3-1.9c2.3-5.8,4-12,11.3-13.5c1.3-0.3,2.4-1.1,3.2-2.2c2-2.9,4.7-3.7,8.1-3
		c3.9,0.8,7.9,0.8,11.9,0.4c4.3-0.4,7.7-2.6,10.5-5.8c1.7-1.9,1.1-3.7-1.3-4.6c-5.5-2.1-5.9-2.8-4.2-8.3c0.9-3.1,1.8-6.2,2.7-9.2
		c1.3-4.3,2.4-5.1,6.9-5c2,0.1,4,0.3,6,0.5c1.4,0.1,2.4-0.2,2.9-1.6c0.5-1.4,0.1-2.4-1.2-3c-1.3-0.7-2.4-1.6-2.8-3.1
		c-0.4-1.6-1.9-1.7-3.2-1.9c-3-0.6-4.3-2.3-4-5.4c0.3-4.3,1.5-8.3,2.8-12.3c0.9-3.1,3.4-4.1,6.3-4.6c8.6-1.5,8.6-1.5,9.8-10.2
		c2.1-15.8,1.1-31.7,1-47.5c0-5.9-0.1-11.8,0.5-17.6c0.2-2.2-0.6-2.9-2.7-3.2c-21.2-2.8-33.6-15.8-40.3-35.2
		c-3.6-10.5-3.4-21.1-0.9-31.8c0.1-0.3,0.1-0.7,0.3-1c0.3-0.9,0.4-2.2,1.7-2.2c1.1,0,1.1,1.2,1.4,2c2.7,6.9,6,13.6,10.5,19.5
		c8.1,10.9,18.4,16.7,32.4,14.3c3-0.5,3.7-1.7,4.1-4.8c1.1-9.8-2.1-18.1-7.4-26c-2.4-3.5-4.1-7.3-6.1-11c-0.8-1.4-0.8-3-0.7-4.5
		c0.3-6.6,1.5-13,3.1-19.3c0.2-1,0.7-2,0.1-2.9c-4.4-7.5-3.3-15.7-2.9-23.7c0.3-6.2-3.8-10.4-6.1-15.4c-0.7-1.5-2.1-0.7-3.1,0.2
		c-3.2,2.7-6.6,5.2-9.8,8c-2.4,2.1-5,3.3-8.2,2.2c-2-0.7-2.9,0.5-3.6,2c-0.7,1.3-1.1,2.9-2.5,3.9c-1.2,0.9-2.4,1.8-3.9,1.1
		c-1.5-0.7-2-2-1.9-3.6c0.1-2.3,0.2-4.7,0.4-7c0.4-3.5,1.5-6.8,0.2-10.4c-0.5-1.4-0.3-3.2,2.2-3c1.3,0.1,1.9-1,2.5-2
		c1.8-3.4,4.2-6.2,7-8.8c1.1-1,2-2,2-3.6c0.1-2.8-1.1-3.7-3.6-2.6c-1.4,0.6-2.8,1.3-4.2,2c-0.2,0-0.4-0.1-0.6-0.1
		c-4.9,0-8.8,4.1-13.9,3.4c-0.3,0-0.7,0.5-0.9,0.9C773.7,175.9,771.7,176.1,769.7,176.3z M987.1,460.6c0.8-0.4,0.9-1.1,1.1-1.8
		c1.4-8.5,2.7-17.1,3.6-25.7c0.4-3.9-0.7-7.1-2.7-10.3c-5.9-9.4-12.8-18-19.1-27.2c-5.2-7.6-9.7-15.3-8.8-25.1
		c0.7-8.1,0.6-16.2,2-24.2c0.2-1,0.7-2.3-0.6-3c-1.8-0.9-7.2,2.4-7.3,4.4c-0.1,8.6-0.1,17.3-0.1,25.9c0,5.9,1.6,11.4,4.5,16.5
		c3.9,7,7.5,14.1,9.3,21.9c0.6,2.5,1.6,3.6,4.1,3.7c3.5,0.2,6.4,1.6,8.1,4.9c1.8,3.7,2.7,7.7,3.3,11.8c0.4,3.1-0.9,5.2-3.4,6.6
		c-1.4,0.8-2.9,1.5-4.5,2.1c-2.1,0.7-3.6,1.7-3,4.3c0.5,2.5,0,5.2,4.2,5.4c5.8,0.2,6.6,1.3,8.2,6.8C986,458.8,986,459.9,987.1,460.6
		z"/>
	<path class="st2" d="M769.7,180.3c2-0.2,3.9-0.5,5.1-2.4c0.2-0.4,0.7-0.9,0.9-0.9c5.1,0.7,9-3.4,13.9-3.4c0.2,0,0.4,0.1,0.6,0.1
		c1,0.9,2.3,0.5,3.9,0.9c-2.8,1.8-5.4,3.5-7.9,5.2c-1.6,0.4-2.8,1.5-4.1,2.4c-7.3,3.7-15.1,5.9-22.6,9.3
		c-18.3,8.4-37.3,14.6-56.2,21.5c-10.4,3.8-20.3,9-30.5,13.4c-3.9,1.7-8.3,2.3-12.2,4c0.9,0.9,2.2-0.1,3.4,0.8
		c-5.5,2.4-10.9,4.8-16.3,7.1c0.1,0.3,0.2,0.6,0.4,1c20.1-7.4,40.2-14.8,60.3-22.2c0.1,0.2,0.3,0.4,0.4,0.6c-4.2,3-9.4,4.2-13.7,7.1
		c-0.6,0.4-1.4,0.5-1.8,1.3c-0.2,0.1-0.7,0.2-0.4,0.5c0.1,0.1,0.5-0.1,0.8-0.1c1-0.1,2-0.2,2.9-0.2c0,0.1,0.1,0.3,0.1,0.4
		c-3.3,1.6-6.6,3.4-10,4.8c-14.7,5.9-29.1,13.4-44.6,16.8c-19.8,4.4-38.6,13-59.2,13.6c-8.4,0.2-16.8,0-24.9,0
		c-0.2,0.5-0.2,0.3,0,0.2c0.7-0.9,2.9-0.4,2.4-2.1c-0.4-1.4-2.2-1.3-3.5-1.2c-6.3,0.2-12.5,1.5-18.7,2.5c-3.4,0.5-7.3,0.6-9.9,2.4
		c-3.5,2.4-6.9,1.8-10.4,2c-8.6,0.5-17,2.6-25.4,4.3c-1,0.2-2.3-0.1-3,1.4c1.2,0.1,2.4,0.3,3.6,0.4c-1.4,0.8-2.8,1.1-4.2,1.1
		c-9.9,0-19.6,1.5-29.5,1.9c-3.2,0.1-6.5-1.4-9.6,0.8c-0.7,0.5-1.7-0.2-2.5-0.5c-3.2-1-7-2.3-9.7-0.8c-6.1,3.5-12.7,1.3-18.9,2.6
		c-6.3,1.3-13,1.3-19.4,2.1c-4.9,0.6-9.8,1.7-14.6,2.1c-4.9,0.4-10.7-0.3-14.9-3.4c-2.6-1.9-5.2-1.5-7.7-1.8
		c-6.4-0.6-13-0.4-19.4-0.4c-2.7,0-5.4,0.6-7.9,2.1c-1.6,1-3.6,0.9-5.5,0.4c-6.5-2-13.3-4.1-20-2.7c-6.6,1.4-13.1-0.3-19.5,0.2
		c-11,0.8-22.2,0-32.8,2.9c-10.4,2.8-21.4,2.2-31.5,5.9c-6.9,2.5-14.5,1.3-21.2,4.6c-3.7,1.8-7.8,2.3-11.7,3.4
		c-6.2,1.7-12.1,4.4-17.8,7.1c-1.9,0.9-3.1,2.5-4,4.3c-1.1,2.1,0.2,4.3,2.5,4.7c3.7,0.6,7.2-0.7,10.7-1.6c5.5-1.5,7-0.6,9,3.7
		c0.6,1.3,0.6,2.2,0.2,3.4c-0.7,2.2-1.9,4.2-3.1,6.2c-2.3,3.6-2.1,5,0.7,8.1c0.5,0.5,1.7,0.7,1.1,1.7c-0.5,0.8-1.4,0.3-2.1,0.3
		c-2.2,0-3.9-0.7-4.7-2.9c-0.6-1.6-1.7-1.9-3.2-1.5c-1.8,0.5-5.1,4.8-5.1,6.6c0,3.5,2.8,1.1,4.3,2c-1.2,1.3-2.5,2.2-4,2.8
		c-1.4,0.6-2.7,1.5-3.8,2.6c-2.4,2.6-1.8,4.5,1.5,5.6c0.7,0.2,1.4,0.6,2.3,1c-3,2.2-6.2,3.8-8.2,7.1c-2.7,4.4-2.7,6.2,0.9,9.7
		c1.3,1.3,0.9,2.6,0.3,4c-1.2,2.5-1.7,4.8,1.1,6.6c1.3,0.8,1.1,2,0.5,3.2c-0.5,1-1.8,1.9-0.7,3.2c1,1.3,2.5,1.2,4,0.9
		c1-0.2,1.9-0.6,3.3-1c-1.8,2.4,1.3,3.7,0.8,5.9c-0.2,0.9,1.4,0.6,2.2,0.6c2.2-0.1,3.9-1.5,5.9-2.1c1.2-0.3,2.4-1.1,4.4-0.4
		c-4.5,1.7-8,3.9-11.1,6.9c-1.8,1.8-2.8,3.9-3.2,6.4c-0.1,0.7,0.1,1.4,0.7,1.7c0.7,0.5,1.2,0,1.8-0.4c1.2-0.9,2.2-2.1,4.9-2.2
		c-4.7,3.9-4.8,10.1-9.9,12.9c-3,1.6-5.8,3.6-9,4.8c-7,2.7-13.9,5.8-21.6,6.1c-5.8,0.2-11.2-2.1-16.8-3.1c-0.6-0.1-1.3-0.6-1.6-1.2
		c-4-6.4-9.7-11.1-15.1-16.2c-3.3-3.2-6.2-6.9-7.8-11.2c-1.8-4.7-5.3-7.6-9.4-10.1c-0.8,2-0.5,3.9,0.9,5.1c1.7,1.5,1.6,3.6,2.3,5.4
		c0.2,0.4,0.3,1.2-0.4,1.4c-0.5,0.2-1.1,0.1-1.5-0.5c-1.5-2.4-3.5-4-6.1-5.1c-1-0.4-1.2-1.2-1.4-2.1c-0.5-1.8-1.6-3.2-2.6-4.8
		c-2.6-4.2-3.8-9.1-5-13.9c-0.2-1-0.2-1.9-0.7-2.9c-0.9-1.9-3.5-3.9,1-5.1c1.2-0.3,1-2.4-0.1-3.4c-0.9-0.9-2-1.5-2.9,0.1
		c-0.7,1.3-1.9,1.7-3,2.5c-2,1.3-3.4,2.3-2.5,5.6c0.8,3.1,1.3,7.1-0.7,10.5c-0.6,1-0.7,1.9,0.4,2.9c1.1,1.1,2,0.8,3.1,0
		c-1.6,2.5-4.2,4.2-3.6,7.7c-1.1-1.9-3.6-3.2-2.3-6c0.1-0.3,0.2-0.7,0.1-0.9c-2.7-6-1.1-12.7-2.6-18.9c-0.5-2.1-0.4-3.2-3.4-2.6
		c-1.8,0.4-4.1-1.6-5.5-3.7c-2.9-4.7-4.7-9.9-6.5-15.1c-0.2-0.6-0.2-1.3-1.1-1.5c-5.2-1.1-7.2-5.3-9.7-9.3c-1.7-2.6-3.8-5-5.7-7.5
		c-1.6-2.1-3.2-4.1-3.8-6.8c-0.7-3.5-2.8-6.4-4.2-9.5c-1.7-3.7-1.8-7.3-1.2-11.1c0.6-4.4-0.7-8.8,0.1-13.3c0.3-1.9,1.7-2.7,2.2-4.2
		c0.7-2.3,1-4.7,1.6-7c0.7-2.5,0.6-5.3,4.2-6.3c2.5-0.7,3-3.9,1.6-5.9c-2-3.1-0.8-6.4-1.7-9.5c-1.2-4.7-0.1-9.6-1.8-14.4
		c-0.7-2-2.9-2.8-3-5.3c-0.1-2.7-0.1-5.5,0.3-8.2c0.7-4.7-2.1-9.1-1.2-13.7c1-5.2,1.8-10.7,6.1-14.5c1.9-1.7,2.2-4,2.9-6.2
		c1.3-4.5,3.6-8,7.1-11.4c3.1-3,6.3-5.9,10.2-6c9.2-0.3,18.8-3.5,27.7,2.1c1,0.6,2.1,0.3,3.2-0.1c3.3-1.2,6.7-1.2,10.1-1.2
		c1.1,0,2.5,0.1,3.2,0.7c2.2,2.4,4.5,1.4,6.9,0.6c0.2,0.2,0.3,0.4,0.5,0.6c-0.4,0.4-0.8,0.8-1.2,1.1c-0.6,0.5-1.4,1-1,1.9
		c0.4,0.9,1.4,0.6,2.1,0.4c2-0.4,4-0.9,5.4-2.4c6.4-7.5,15.4-8.9,24.4-10.6c4.3-0.8,8.3,0.2,12.4,1c1.5,0.3,3,0.5,4.6,0.4
		c-1.3,1.4-3.7,1.2-4.8,3.6c5.3-1,10.1,1.9,15.3,0.4c3.5-1,7.1-0.5,10.9,0.4c4.2,1,6.8,4,10.5,5.3c-2.2,0-4.2-1.1-6.3-0.8
		c-0.8,0.1-1.6,0.1-1.9,1c-0.3,0.8,0.1,1.4,0.7,2.1c1.7,1.8,3.5,3.4,6,3.8c4.1,0.7,7.4,3.5,12.3,4.3c-1.7,1.2-2.6,0.6-3.4,0.3
		c-2.2-0.8-4.3-0.9-6.5-0.3c-3.8,1-4.9,4.1-2.2,6.9c2,2.1,2.2,4.1,1.3,6.7c-2-1-1.4-3.2-2.9-4.7c-6.5-6.7-14.3-7.3-22.6-6.4
		c-4.6,0.5-9.1,1.7-13.3,3.8c-1.8,0.9-4.1,1.6-3.3,4.5c0.3,1.1-1,1-1.6,1.2c-1.9,0.7-3.7,1.5-5.4,2.6c-3.8,2.7-4.2,5.3-1.4,9
		c2.3,3,5.2,5.1,9.1,5.3c1.2,0.1,2.4,0.4,3.6,0.4c3.5,0,5.2,2.2,6.2,5.5c-1.7-0.3-3.3-0.7-4.7-1.7c-5.1-3.8-11.7-2.9-14.1,3.8
		c-0.9,2.7-2.4,3.6-4.1,4.8c-1.4,1-2.4,2.2-3,3.9c-0.4,1.2-1.6,2.5-0.3,3.6c1.1,1,2.6,1.7,4.3,1.1c2.4-0.8,4.9-1.5,7.3-2.3
		c2.6-0.8,4.9-2.4,8.1-0.9c1.5,0.7,4.1-0.4,6.1-1c4.8-1.5,9.7-1.9,14.7-0.1c-4.5,0.3-8.9,0.5-12.9,2.9c9.9,0.6,19.6-2.9,29.6-1.2
		c0,0.2,0,0.4-0.1,0.5c-0.9,0.9-3.3,0.7-2.8,2.2c0.5,1.4,2.5,0.6,3.9,0.6c3.5,0.1,6.7-0.8,9.9-2.2c9.2-4,19.2-4.9,28.8-7.4
		c1.8-0.5,3.2,0.4,4.9,0.4c5.1,0.2,9.8-1.3,14.7-2.4c1.2-0.3,2.4-0.5,3.1-0.4c-5.9,4-13.6,4.5-20.3,7.5c-0.7,0.3-1.4,0.7-2.1,1.1
		c-0.8,0.5-2,1-1.7,2.1c0.4,1.2,1.6,0.8,2.6,0.8c0.8,0,1.5-0.2,2.3-0.3c-0.1,1.7-2.1,1.6-2.3,3.4c3.5,0.7,7.2,0.1,10.3-0.7
		c11.2-2.8,22.6-1.8,33.9-3.3c1.4-0.2,2.9-0.7,4.2-0.6c1.2,0.1,3.4-2.4,3.6,1.1c0,0.1,0.4,0.2,0.6,0.2c4.8-0.8,9.2,1.5,14.1,1.1
		c3.4-0.3,7.3-0.7,10.9,1c3,1.4,6.5,0.7,9.7-0.3c2.1-0.7,4.2-1.3,6.5-1.3l-0.1-0.1c0,2,1.6,1.9,2.8,1.9c5,0.1,9.9,0.3,14.9,0.3
		c2.4,0,5.3,0.2,7,1c7,3.3,7.5,3.9,12.9,4.3c2.3,0.2,4.7,0.6,7,0.4c6.3-0.5,12.1,2,18.2,2.6c4.4,0.4,8.6,1.5,13.1,0.5
		c3.5-0.7,7,1.1,10.7,1.2c5.2,0.1,10.3,0.9,15.4-0.8c1.3-0.4,2.7-1.3,4.1,1c0.7,1.1,4.1,0.7,6.3,0.8c12.1,0.9,24.2,1.8,36.2-0.4
		c1-0.2,2-0.1,3,0c0.6,0,1.4,0.3,1.2,0.8c-1.7,4.3,1.6,2.2,2.7,1.9c6.3-1.3,12.6,0.4,18.8-0.3c5.9-0.7,11.9-1.3,17.8-2
		c0.9-0.1,1.9-0.2,2.8-1.2c-1.2-0.4-2.3-0.8-3.9-1.4c2.4-1.3,3.8-3.5,6.2-0.8c0.4,0.5,1.9,0.1,2.9,0l0-0.1c-0.4,1.7-2.5,0.8-3.5,2.6
		c2.2,0.5,4.2,0.4,6.3,0.3c13.6-0.7,26.9-3.7,40.2-6.2c13.8-2.5,27.3-6.2,40.8-10c0.9-0.3,1.9-0.8,2.9-0.4l0,0
		c3.4,1.3,6.7,0.3,9.9-0.5c15.1-3.6,30.2-7.5,44.7-13.2c2.7-1,5.2-0.1,7.8-0.6c17.4-3.6,34.2-9.2,51.2-14.4
		c11-3.3,21.8-7.2,32.8-10.3C757.2,184.4,763.6,182.9,769.7,180.3z M115.1,357.9c-0.7,1.8-2.1,2.4-3.1,3.4c-6.2,6-5.2,14.4,2.7,17.2
		c0.7,0.3,1.8,0.4,1.9,1.1c0.5,3.5,3.4,3.5,5.7,3.6c1.8,0.1,2.8,0.6,2.9,2.3c0.3,4.8,4.9,5.7,8.4,3.4c1.8-1.1,3.7-1.6,5.6-2.2
		c0.4,1.2-0.5,1.7-0.5,2.4c0,2.8-1.1,6.1,1.7,8c2.9,1.9,6.2,3.5,9.8,1.1c0.7-0.4,1.2-1.3,2.6-0.5c3.1,2,4.9,1.3,6.6-2
		c2.6-5,3.8-10.5,5.1-15.9c0.5-2.2,0.5-4.9-2.1-6.4c-0.8-0.5-0.9-1.3-0.9-2c0.3-2.5-0.5-5.1,0.4-7.6c2.1-5.8,1.1-10.5-4.7-13.6
		c-0.8-0.4-2.5-1.4-1.3-2.8c1.1-1.2,1.9,0.2,2.5,1.1c0.6,0.8,1.4,1.1,2.3,0.7c1-0.4,0.9-1.4,0.5-1.9c-3.2-3.8-1.6-8.9-3.4-13.1
		c-0.8-1.8-0.3-5.3-1.7-5.3c-2.2,0-2.8,3.1-3.6,5c-2.1,5.3-5.2,9.9-9.4,13.8c-3.2,3-8.1,4.3-10.9,2.4c-1.4-0.9-3-1.4-4.4-2.2
		c-1.1-0.6-2.1-0.8-2.3-2.5c-0.4-2.4-4.2-5.2-5.4-4.3c-2.8,2.1-6.2,3.5-7.9,6.9c-0.7,1.3-1.7,3.8-1,4.2c2.6,1.5,0.2,1.7-0.4,2.3
		c-0.6,0.6-1.7,1.3-1.2,2.1c0.5,0.9,1.3,1.8,2.6,1.8C113,358.5,113.8,358.2,115.1,357.9z"/>
	<path class="st2" d="M19.3,177.9c-1.7,2-3.3,3.9-4.9,5.8c-1.2,1.4-1.9,2.9-1.4,4.8c0.6,2.5,1.2,4.9,4.9,3.9
		c-0.7,1.3-2.4,2.1-1.4,3.6c0.8,1.2,2.1,0.8,3.3,0.8c0.9,0,1.7,0.2,3.1,0.4c-1.9,1-3.5,1.7-4.9,2.5c-4.7,2.6-6.2,6.5-6.7,12
		c-0.4,4.2,0.2,7.8,1,11.7c1.3,6.2,5,9.9,11.4,11.8c-4.8,3.2-6.6,7.8-7.9,12.9c-0.4,1.4-0.3,2.8-0.4,4.2c-0.2,1.5-0.1,2.7-1.9,3.3
		c-0.9,0.3-1.2,1.3-1.1,2.5c0,2-0.1,4.1-1.8,5.8c0.5-3.3-1.6-6.2,0.3-10c2-4.1,3.7-8.8,2.4-13.8c-0.8-2.9-3.1-4.7-4.1-7.3
		c-0.5-1.3-2-1.6-3,0.2c-0.3,0.6,0.2,2.1-1.4,1.7c-1-0.3-1.2-1.1-1.5-2c-3-8.2-3.3-16.6-2.9-25.2c0.1-1.2,0.6-2.7,1.7-3.1
		c4-1.3,3.2-4.4,3-7.2c-0.2-2.1-0.8-4.1-1.4-6.1c-1.5-4.7-0.4-8.7,2.9-12.1c1.8-1.9,3.1-3.9,3.5-6.5c0.4-2.3,1.9-4.1,3.2-6
		c0.5-0.7,1.2-1.2,1.9-0.9c1.1,0.4,0.5,1.6,0.2,2c-2,2.4-0.7,5.3-1.5,7.9c-0.3,1.2,0.5,1.5,1.5,1.6C16.5,177.2,18,176.8,19.3,177.9z
		"/>
	<path class="st2" d="M151.1,429.4c1.9,4.7,0.2,7.3-5.1,8.1c-0.8,0.1-2-0.1-2.2,1c-0.4,1.7,1.5,0.6,2.1,1.5c-3.8,3.4-8,4.8-13,3.4
		c-0.5-0.1-1.3-0.4-1.6-0.1c-2.8,2-3.8-0.5-5-2c-1.7-2.1-2.9-4.6-5.2-6.2c-1.2-0.8-2.2-1.9-3.8-1.3c-0.3,0.1-1,0-1.2-0.2
		c-3.6-3.7-8.5-6-11.1-10.7c-1.2-2.2-3.8-3.3-4.8-5.7c-0.2-0.5-0.9-1-0.8-1.4c1.6-7.1-4.4-9.8-8-13.7c-2.2-2.4-3-3.7-2.7-7.6
		c3.9,4.3,7.7,8.4,11.5,12.5c0.2,0.2,0.4,0.7,0.7,0.7c3.8,0.4,3.3,3.5,3.9,5.9c0.2,0.7,0.5,1.5,0.8,2.2c0.6,1.5,1.9,2.6,3.5,2.8
		c1.7,0.2,2-1.4,2.5-2.6c0.3-0.8,0.8-1.5,1.5-2.2c0,1.7,1.1,3,0.7,4.9c-1.4,5.7,1.8,9.4,7.7,9.2c1.5-0.1,2.3,0,3.2,1.3
		c2.4,3.3,5.9,4.4,9.9,4c0.7-0.1,1.7-0.7,2.2,0.1c2.2,3.9,5.1,1.8,7.7,0.9C146.8,433,149,431.3,151.1,429.4z"/>
	<path class="st2" d="M166.5,437.5c1,1.7,2,3,3.7,3.7c3.1,1.2,5.6,0.2,7-2.9c2-4.6,2.2-9.5,1.9-14.3c-0.1-1.5-0.1-2.6,0.8-3.8
		c2.2-3,1.4-6.5,1.4-9.8c0-1.2-0.8-2.3,0.2-4.2c1.4,6.1,4.2,11.3,1,17.2c-2.3,4.3-0.9,8.8,0.6,13.1c0.6,1.9,2.8,1.3,4.9,1.2
		c-2.6,1.6-4.6,3.1-6.1,5.5c-1.6,2.5-1.3,4.2,0.9,5.6c1.6,1.1,1.5,2.1,0.5,3.2c-2.2,2.6-2.3,5.6-2.3,8.7c0,0.2,0,0.5,0.1,0.7
		c1.2,3.7,4.8,5.9,5.9,9.9c0.5,1.7,3.7,0.5,5.8,0.8c-3.2,1-3.7,3.4-3.3,6c0.4,3,0.4,5.9-0.5,8.2c-1.1-3.2-0.6-7.7-4.1-10.5
		c-1.5-1.2-3.3-2.7-5.2-0.3c-0.4,0.5-1.6-0.1-1.9-1.3c-1.4-7-6.3-12.8-6-20.4c0.1-2.3-1-4.5-2.7-6.2c-0.4-0.4-0.7-0.9-0.9-1.4
		C167.2,443.3,167.8,440.2,166.5,437.5z"/>
	<path class="st2" d="M231.2,189.4c-5.2,1.9-10,3.5-13.9,7c-2,1.8-4.1,3.3-3.7,6.9c0.4,3.5,0,3.3,3.6,4.8c3.6,1.6,7.4,2.7,11,4.3
		c-8.4-0.3-16.7-0.3-25,0.6c-2.5,0.2-4.8-0.3-7.1-1.4c-1.3-0.6-1.9-1.6-1.5-2.9c0.4-1.5,1.5-0.7,2.4-0.6c5.1,0.8,11.4-2.8,13.2-7.7
		c0.7-1.9,2.4-2.7,3.9-3.9c0.5-0.4,1.3-0.7,1.1-1.4c-0.2-1-1.2-0.9-1.9-0.9c-4.4,0.1-8,2.3-11.2,5c-0.6,0.5-1.3,1.8-1.5,1.5
		c-1-2.2-4.3-0.1-4.8-2.6c-0.7-3.6-3.3-4.4-6.5-4.4c3.5-2.3,7.1-4.5,6.8-9.4c3.9,2,4.1,3.5,0.4,6.3c-0.5,0.4-0.7,0.8-0.5,1.4
		c0.4,1.1,1.1,1.9,2.4,2c4,0.3,7.5-0.6,10-3.9c3.9-5.1,9.1-6.9,15.1-5.1c1.8,0.6,4.2,0.4,4.6,3.2
		C228.3,188.6,229.9,188.9,231.2,189.4z"/>
	<path class="st2" d="M96.2,450.9c3.5,2.5,4.5,6.9,7.4,10.1c4.1,4.5,9.3,5,14.7,5.4c0.8,0.1,1.7-0.2,2.6,0.1
		c1.6,0.4,2.4-0.3,2.2-1.9c-0.2-2.1,0.7-3.8,1.8-5.7c0.2,5.4,2.6,9.7,6.8,12.7c4.1,2.9,8.4,5.8,13.9,2.7c-2,5.7-4.7,8-9.2,6.2
		c-3.9-1.6-8.4-3.1-11.1-7c-1.5-2.2-3-3.6-6.2-3.9c-4.7-0.4-9.6-1.3-13.7-3.5c-4-2.1-8.4-4.2-11.1-8.2c-1.6-2.4-4-4.1-6-6.3
		c-3.1-3.5-3.1-7.5-3.1-11.6c1.7,3,1.5,6.8,4.1,9.4c0.7,0.7,1.3,1.4,2,2.1C94.3,453.9,94.6,453.9,96.2,450.9z"/>
	<path class="st2" d="M24.6,324.9c0.8,2.2-0.8,4.3-0.4,6.6c0.7,4.3,3.6,6.8,6.9,9.2c1.4,1.1,4.2,1.6,1.9,4.5
		c-0.6,0.8,0.4,1.7,1.1,2.1c3.1,1.6,6.3,3.1,9.4,4.6c0.7,0.3,1.4-0.8,2.1,0c0.4,2.4-3.5,2.2-3,4.5c0.4,1.9,1.9,3.5,2.1,5.5
		c0.1,0.8,0.2,1.5,0.3,2.5c-2-0.2-2.6-1.7-3.3-3c-1.3-2.1-2.7-3.6-5.5-3c-3.2,0.6-4.3-2.5-5.7-4.2c-2.5-2.9-3.4-7-6.4-9.8
		c-0.1-0.1-0.3-0.5-0.2-0.6c3-5.1-3.4-7.4-3.5-11.7c-0.1-3.2-4.2-4.3-4.4-7.8c-0.1-1.3-0.2-2.7-0.2-3.9c1.8,2.2,3.5,5,6.8,5.7
		C23.4,326.5,24.5,326,24.6,324.9z"/>
	<path class="st2" d="M325.4,214.7c-8.6,0-17.1-0.1-25.7,0.1c-2,0-4.1,0.9-6.1,1.5c-0.6,0.2-1.3,0.6-1.2,1.4c0.1,0.8,1,0.7,1.6,1
		c-6,1.3-11.7-1-17.5-0.6c-3.5,0.3-6.2-1.5-9.3-2.2c-1.3-0.3-0.5-1.3,0.2-1.6c1.8-0.9,3.6-1.8,5.5-2.4c5.1-1.5,10.1-3,14.8-5.4
		c3-1.5,6.3-2,10-1.1c-2.7,0.5-5.3,0.6-7.2,2.7c2.9,2.9,6.7,2,10.1,2.8c-4.4,0.5-8.8,0.9-13.2,1.4
		C300.1,214.3,312.9,211.1,325.4,214.7z"/>
	<path class="st2" d="M72.3,385.8c0.8,4.8,2.8,8.2,2,12.8c-1,5.2,0.6,10.2,5.7,13.5c2.1,1.3,2.9,6.9,1.8,9.2c-0.2,0.4-0.5,0.7-1,0.7
		c-1.2,0-1.5-1-1.6-1.8c-0.6-3.5-3.6-5.7-5.8-7.3c-2.4-1.7-4.6-3.5-6.6-5.7c-1.2-1.3-2-3.1-2.4-4.6c-1.6-5.3-5.6-9.6-6-15.4
		c0-0.5-0.3-1.1,0.6-1.6c2.5,2.4,2.8,6.3,5.3,8.7c1.5,1.5,2.3,3.7,4.1,5.1c1,0.7,2.1,0.9,3.1,0.5c1.3-0.6,0.2-1.7,0.3-2.6
		C72,393.7,70.4,390.2,72.3,385.8z"/>
	<path class="st2" d="M201.2,380.6c2.2-1.7,4.4-2.8,7.5-1.8c2.7,0.8,6.6-2.4,8.2-5.9c-1.1-0.8-2.3-0.3-4.1-0.7
		c4.4-2.2,8.7-2.8,12.8-4.2c1.7-0.6,3.2,1,4.9,1.6c-1.3,1.1-2.7,0.4-3.9,0.8c-2.3,0.7-4.8,1.2-6.4,3.2c-0.9,1.1-2.5,1.9-1.5,3.9
		c1,1.9,1.8,3.7,4.5,2.6c0.2-0.1,0.6,0.1,1.1,0.1c-0.5,1.9-1.9,3.2-3.3,4c-4.4,2.5-8.6,5.4-13.7,6.6c-1.4,0.3-2.7,0.5-3.6-0.7
		c-0.9-1.3-0.7-2.7,0.1-4.1c0.1-0.2,0.2-0.4,0.3-0.6c0.7-1.4,2.5-2.9,1.7-4.4C204.9,379.5,202.8,380.9,201.2,380.6L201.2,380.6z"/>
	<path class="st2" d="M555.2,276c-15.1,2.8-29.5,4.8-43.2,9.9c2.5,1.4,5.1,0.2,7.6,0.6c-5.6,2.7-11.7,3.4-17.6,3.3
		c-6-0.1-12.1-0.3-18.2-0.3c-1,0-2.6,0.4-2.6-1.1c0-1.3,1.6-0.8,2.5-1c16.1-3.7,33-3.2,48.6-9.4c1.1-0.4,2.4-0.6,3.6-0.4
		C542.1,278.4,548,275.8,555.2,276z"/>
	<path class="st2" d="M419.6,283.7c-2.8-0.8-5.2-0.4-7.5,0.5c-2.3,0.9-4.5,1.8-7,1.8c-1.9,0-3.5,1.2-3.9,3c-0.4,1.9,0.4,3.7,2.9,3.9
		c-3.7,1-7.2,1.3-10.8,1.4c-3.7,0.1-5-1.2-5-4.9c0-1-0.5-1.5-1.3-2.1c-0.9-0.7-0.6-1.8-0.3-2.8c0.4-1,1.3-0.6,2-0.4
		c4.1,0.8,8.1,0.4,12.1-0.8c4.5-1.3,9-2.3,13.7-1.9C416.3,281.6,418,282,419.6,283.7z"/>
	<path class="st2" d="M199.5,334.7c10.3,3.2,20.2-2.4,30.5-1.3c-1.3,1-2.8,1.3-4.3,1.4c-1.9,0.1-3.7,1.2-4.1,2.8
		c-0.5,2.4-2,2.9-3.8,3.5c-5.6,2.1-11.1,1.5-16.6-0.1c1.3-0.5,2.6-1,3.9-1.6c0.9-0.4,1.4-1.2,1-2.2c-0.3-0.8-0.9-1.3-1.8-1.1
		C202.5,336.5,201,335.6,199.5,334.7z"/>
	<path class="st2" d="M463.1,308.2c1-2,3.7-3.1,3.4-6.1c-0.1-1.2,1.4-1,2.1-0.7c7.6,2.7,14.9,0,22.2-1.5c1.1-0.2,2.1-0.5,4.1,0
		c-6,1.5-10.6,4.6-15.7,6.5C473.8,308.3,468.6,309,463.1,308.2z"/>
	<path class="st2" d="M204.4,506.5c1.2-11.1,1.8-21.6,2.3-32c0.6,1.4,1.6,2.3,2.2,3.5c1.3,2.2,3,4.6,0.8,7.3
		c-1.1,1.3-1.4,2.9-1.1,4.7c0.5,3.3-2.5,6.4-0.5,10.1C208.3,500.6,206.3,504.1,204.4,506.5z"/>
	<path class="st2" d="M210.5,441.8c-1.5,1.8-2.1,3.9-2.4,6.2c-0.3,2.2-0.4,4.4,0,6.6c-0.3,0-0.5,0-0.8,0.1c-0.5-2.3-1.1-4.5-1.4-6.8
		c-0.3-2.6-1.1-4.7-3.5-6c-0.5-0.3-1.2-1-1.2-1.5c-0.2-4.1-0.5-8.1-1.4-12.2c2.2,1.4,2.5,3.7,3,5.7c0.8,3.2,4.7,4.2,5,7.7
		C208.1,442.9,209.6,441.8,210.5,441.8L210.5,441.8z"/>
	<path class="st2" d="M134.7,457.8c3.8,0.3,7.6,0.7,11.5,1c3.1,0.2,5.5-1.3,7.4-3.7c0.8-1,1.1-2.5,2.5-2.8c0.8,3.2-1.6,5-3.2,6.9
		c-1.8,2.1-4.2,3.6-6.3,5.4c-1,0.9-2.7,1-3,0.3C141.8,461,137.4,460.5,134.7,457.8L134.7,457.8z"/>
	<path class="st2" d="M166.6,501c-0.6,3.5-2.1,5-6,3.7c-1.7-0.5-3.4,1.6-5.5,1.9c-1.4,0.1-3,0.5-4.2,0c-4.8-1.7-10.2-2.1-13.7-6.7
		c1.9-1.4,2.7,0.7,3.8,1.3c4,2.1,8,4.1,12.7,3.3c0.6-0.1,1.5-0.2,1.8-0.6c2.9-3.8,7.2-2.4,10.9-3L166.6,501z"/>
	<path class="st2" d="M169.4,429.7c-1.7,0.8-3.3,1.4-4.4,2.9c-1-1.8-1-3.3-0.9-5c0.1-1.4,0-3.1-1.4-3.7c-1.6-0.7-2.6,0.6-3.5,1.9
		c-0.5,0.7-1.1,1.3-1.9,2.4c0.4-2.9,1.9-4.9,2.1-7.3c0-0.5,0.6-1.4,1.3-1.2c3,0.9,4.2-1.5,6.1-4C166.4,421,165.2,425.7,169.4,429.7z
		"/>
	<path class="st2" d="M198,425.3c-0.8,1.5-1.7,2.8-3.3,3.6c-2.3,1.1-3.7,2.9-4.7,5.3c-0.5-6.9-1.9-13.6-0.1-20.3l0,0
		c2.6,0.5,1.9,2.8,1.9,4.2c0,1.5,0.4,2.5,1.6,3.3c1.4,0.9,2.3,1.9,0.1,3.2C195.1,424.8,196.6,425,198,425.3L198,425.3z"/>
	<path class="st2" d="M215.5,463.4c0.2,0.1,0.4,0.1,0.6,0.2c2.8,1.9,4.1,3.8,1.3,7c-1.3,1.5-1.9,3.8-0.1,5.7
		c0.3,0.3,0.7,0.8,0.4,1.1c-2.5,2.9-0.5,7.5-3.6,10.1C214.3,479.5,213.5,471.5,215.5,463.4z"/>
	<path class="st2" d="M161.2,186.7c-1.1,1.2-3.3,0.9-3.6,2.6c-0.3,1.5,1.7,1,2.4,2c-2,0.1-3.8,0.7-5.6,1.4c-1.9,0.8-3.9,1.4-6.1,0.8
		c-3-0.7-1.1-3.3-2.2-4.9C151.5,190.6,155.7,184.9,161.2,186.7z"/>
	<path class="st2" d="M65.5,146.9c-3.9-0.9-4.7-0.1-3.6,3.4c0.7,2.1,1.8,4.1,1.4,7.3c-1.7-2.5-3.3-4.2-4.4-6.2
		c-1.6-3.2-3.7-5-7.6-3.9c3.6-1.9,7.3-3.1,11.1-3.7C64.3,143.7,64.7,145.5,65.5,146.9z"/>
	<path class="st2" d="M582.7,270.6c-1.1,2.9-5.1,2.9-4.1,6.3c0,0-0.7,0.3-1.2,0.4c-3,0.5-6.1,1-9.5,1.6c2.1-2,5.1-1.9,6.8-4.3
		c-3.5-0.8-6,1.7-9.1,1.3C571,274.2,576.5,272.5,582.7,270.6z"/>
	<path class="st2" d="M314.2,415.2c1.5-2.4,3.8-3.8,6.7-4.4c2.7-0.6,5.3,1.6,8.3,0.4C325,416.1,319.3,414.6,314.2,415.2z"/>
	<path class="st2" d="M347.2,230.7c7.6-3,15-1.7,22.7,0.8C362.1,231.7,354.7,230.5,347.2,230.7z"/>
	<path class="st2" d="M469.8,288.5c-6.9,0.4-13.2,4.3-19.9,0.8c4.1,1.2,7.7-0.8,11.4-2.1c2.6-0.9,5.4-3,7.3,1
		C468.7,288.4,469.2,288.4,469.8,288.5z"/>
	<path class="st2" d="M556.3,282.5c-3.9,6.7-9.6,3.7-15,2.4C546.3,283.1,551.4,282,556.3,282.5z"/>
	<path class="st2" d="M169.4,216.4c-7.3-0.4-14,3-21.1,5.3c2.3-2.1,4.8-3.8,7.9-4.2c2.4-0.3,3.9-1.9,5.6-3.4
		c1.7-1.4,1.7-1.4,2.9,0.6c0.4,0.7,1.1,0.7,1.7,0.8C167.5,215.7,168.7,215.9,169.4,216.4z"/>
	<path class="st2" d="M185.9,346.9c-0.4-1.1,1.4-1.4,1-2.6c-1.4-0.9-2.4,0.9-3.7,0.5c0.9-2.5,6-5,8-3.7c1.3,0.8,0.7,2.1,0.1,3.2
		C190.5,345.6,189.2,346.2,185.9,346.9z"/>
	<path class="st2" d="M441.1,325c-2.9,0.8-5.4,2.4-8,3.7c-0.7,0.4-1.4,0.8-2.1,0.1c-0.9-1,0.5-1.1,0.8-1.6c1.5-2.9,4.4-2.6,7.1-2.6
		C439.7,324.6,440.3,325.4,441.1,325z"/>
	<path class="st2" d="M568.8,289.6c2-1.1,3.1-3.3,5.4-3.7c0.8-0.1,1.8-0.7,2.4,0.3c0.4,0.8-0.5,1.3-1,1.9
		C573.8,290.7,571.3,289.9,568.8,289.6z"/>
	<path class="st2" d="M681.8,241.1c-4.5,1.6-9.3,3.3-14.1,5c-0.1-0.3-0.2-0.7-0.3-1C672.3,243.8,676.5,240.3,681.8,241.1z"/>
	<path class="st2" d="M655.9,269c-2.6,2.2-5.5,3-8.2,4c-1.1,0.4-1.6-0.4-1.8-0.9c-0.2-0.7,0.8-1.8,1.1-1.6
		C650.2,272.1,652.4,268.9,655.9,269z"/>
	<path class="st2" d="M736.5,204.7c3.9-1.8,7.6-4.1,11.9-4.8C744.6,201.9,740.8,203.9,736.5,204.7z"/>
	<path class="st2" d="M521.1,332.1c2.5-2,5.4-2.8,8.8-3C527.5,331.7,524.2,331.6,521.1,332.1L521.1,332.1z"/>
	<path class="st2" d="M172.5,489.7c0.4-1.8,0.8-3.2,1.1-4.5c0.1-0.5-0.1-1.2,0.7-1.3c0.8-0.1,0.9,0.8,1.4,1.3
		c0.5,0.5,0.4,0.9-0.3,1.2C173.9,486.8,173.8,488.4,172.5,489.7z"/>
	<path class="st2" d="M166.5,501c1.3-2,2.6-3.9,4.4-6.6c-0.4,3.6-1.4,5.8-4.3,6.7C166.6,501,166.5,501,166.5,501z"/>
	<path class="st2" d="M772.8,189.2c-2.8,1.1-5.7,2.2-8.5,3.3c-0.1-0.2-0.2-0.5-0.3-0.7c2.8-1.2,5.7-2.4,8.5-3.6
		C772.6,188.6,772.7,188.9,772.8,189.2z"/>
	<path class="st2" d="M730.5,207.3c-1.6,1.2-3.2,2.2-6,2.4C726.9,208.4,728.6,207.4,730.5,207.3z"/>
	<path class="st2" d="M763.6,192.4c-0.6,0.9-1.1,1.4-1.6,1.1c-1-0.6,0.1-0.7,0.3-0.9C762.6,192.5,763,192.5,763.6,192.4z"/>
	<polygon class="st2" points="759.9,194.4 760,194.2 760.1,194.4 	"/>
	<path class="st2" d="M517.8,238.9c0.4-0.1,0.7-0.3,1.1-0.4c0.3,0,0.3,0.1,0,0.2C518.6,238.8,518.2,238.8,517.8,238.9
		C517.8,238.8,517.8,238.9,517.8,238.9z"/>
	<path class="st2" d="M708.5,217.2c0.5-0.3,1-0.4,1.5,0c-0.4,0.2-0.7,0.4-1.1,0.5C708.8,217.6,708.6,217.4,708.5,217.2z"/>
	<path class="st2" d="M732,207c-0.2-0.1-0.3-0.2-0.5-0.3c0.2-0.1,0.3-0.2,0.5-0.2c0.2,0,0.3,0.2,0.5,0.3
		C732.3,206.8,732.1,206.9,732,207z"/>
	<polygon class="st2" points="735,205.6 735.1,205.9 735.2,205.6 	"/>
	<path class="st2" d="M774.2,188c-0.2,0.1-0.4,0.2-0.6,0.2c-0.1,0-0.2-0.1-0.2-0.2c0.2-0.1,0.4-0.2,0.5-0.2
		C774,187.9,774.1,188,774.2,188z"/>
	<path class="st2" d="M104.6,165.6c0.4-0.5,0.8-0.7,1.3-0.2c-0.3,0.3-0.5,0.5-0.8,0.8C105,166,104.8,165.8,104.6,165.6z"/>
	<polygon class="st2" points="125.2,456.8 125.5,456.8 125.4,456.9 	"/>
	<path class="st2" d="M317.7,229c0-0.4,0.3-0.5,0.6-0.5c0.1,0,0.1,0.2,0.2,0.4C318.2,228.9,317.9,228.9,317.7,229
		C317.6,228.9,317.7,229,317.7,229z"/>
	<polygon class="st2" points="331,411 331,410.8 330.7,410.9 	"/>
	<polygon class="st2" points="201.2,380.6 201.2,380.7 201.2,380.6 	"/>
	<path class="st2" d="M189.9,413.9c-0.2,0-0.4-0.1-0.5-0.1c0.1-0.1,0.2-0.3,0.3-0.4C189.7,413.6,189.8,413.7,189.9,413.9
		C189.9,413.9,189.9,413.9,189.9,413.9z"/>
	<path class="st2" d="M198,425.3c0-0.2,0-0.3-0.1-0.5C198.7,425,198,425.1,198,425.3C198,425.3,198,425.3,198,425.3z"/>
	<path class="st2" d="M656.8,268.6c-0.1,0.1-0.2,0.2-0.2,0.2c-0.1,0-0.1-0.1-0.2-0.2c0.1-0.1,0.2-0.2,0.2-0.2
		C656.6,268.4,656.7,268.5,656.8,268.6z"/>
	<polygon class="st2" points="210.5,441.8 210.6,441.8 210.5,441.8 	"/>
	<polygon class="st2" points="134.7,457.8 134.6,457.7 134.7,457.8 	"/>
	<polygon class="st2" points="521.2,332 521.1,332.1 521.1,332 	"/>
	<path class="st2" d="M604.5,225.1C604.5,225.1,604.5,225.1,604.5,225.1C604.4,225,604.5,225.1,604.5,225.1z"/>
	<path class="st3" d="M693.8,226.6c-0.3,0-0.7,0.2-0.8,0.1c-0.3-0.4,0.2-0.4,0.4-0.5C693.5,226.3,693.7,226.5,693.8,226.6z"/>
	<path class="st2" d="M146.8,368.5c0.4,0.7,0.7,1.3,1.1,2c0.4,0.6,0.8,1.4,1.8,1.1c1.1-0.3,0.4-1.3,0.6-1.9
		c0.9-3.6,0.2-7.1-0.5-11.1c2.1,0.8,1.8,2.3,2.1,3.5c0.5,1.6,0.1,3.6,2.2,4.5c1.1,0.5,0.4,1.2,0,1.9c-1.1,2.3-1.9,4.6-0.1,7
		c0.3,0.4,0.1,1-0.2,1.6c-1.4,2.5-2.4,5.1-2.9,7.9c-0.2,1.1-1.1,2.1-2.9,1.9c1.2-2.6,1.6-5.1-0.5-7.4c-0.1-0.2-0.3-0.5-0.2-0.6
		C149.5,375.1,146.2,372,146.8,368.5z"/>
	<path class="st2" d="M116.8,357.4c-0.2,0.5-0.5,0.6-1,0.6c-0.1,0-0.2-0.3-0.3-0.4c0.4-0.1,0.8-0.2,1.1-0.3
		C116.6,357.2,116.8,357.4,116.8,357.4z"/>
	<path class="st2" d="M116.6,357.2c0.1-0.4,0.4-0.6,0.6-0.3c0.3,0.4-0.2,0.4-0.4,0.5C116.8,357.4,116.6,357.2,116.6,357.2z"/>
	<path class="st1" d="M782.5,172c0,0,5.7,15.6,6-2.3c0.3-17.8-6,0-6,0V172z"/>
</g>
</svg>
